<?xml version="1.0" encoding="utf-8"?>
<!-- Generator: Adobe Illustrator 24.1.0, SVG Export Plug-In . SVG Version: 6.00 Build 0)  -->
<svg version="1.1" id="Layer_1" xmlns="http://www.w3.org/2000/svg" xmlns:xlink="http://www.w3.org/1999/xlink" x="0px" y="0px"
	 viewBox="0 0 600 600" style="enable-background:new 0 0 600 600;" xml:space="preserve">
<path d="M352.8,168v184.8h-264V168H352.8z M88.8,115.2C59.7,115.2,36,138.9,36,168v184.8c0,29.1,23.7,52.8,52.8,52.8h96.8l-8.8,26.4
	h-61.5c-14.6,0-26.4,11.8-26.4,26.4s11.8,26.4,26.4,26.4h211.2c14.6,0,26.4-11.8,26.4-26.4S341,432,326.4,432h-61.6l-8.8-26.4h96.9
	c29.1,0,52.8-23.7,52.8-52.8V168c0-29.1-23.7-52.8-52.8-52.8H88.8z M471.6,115.2c-21.9,0-39.6,17.7-39.6,39.6v290.4
	c0,21.9,17.7,39.6,39.6,39.6h52.8c21.9,0,39.6-17.7,39.6-39.6V154.8c0-21.9-17.7-39.6-39.6-39.6H471.6z M484.8,168h26.4
	c7.3,0,13.2,5.9,13.2,13.2c0,7.3-5.9,13.2-13.2,13.2h-26.4c-7.3,0-13.2-5.9-13.2-13.2C471.6,173.9,477.5,168,484.8,168z M471.6,234
	c0-7.3,5.9-13.2,13.2-13.2h26.4c7.3,0,13.2,5.9,13.2,13.2s-5.9,13.2-13.2,13.2h-26.4C477.5,247.2,471.6,241.3,471.6,234z M498,366
	c14.6,0,26.4,11.8,26.4,26.4s-11.8,26.4-26.4,26.4c-14.6,0-26.4-11.8-26.4-26.4S483.4,366,498,366z"/>
</svg>
