<?xml version="1.0" encoding="utf-8"?>
<!-- Generator: Adobe Illustrator 24.1.0, SVG Export Plug-In . SVG Version: 6.00 Build 0)  -->
<svg version="1.1" id="Layer_1" xmlns="http://www.w3.org/2000/svg" xmlns:xlink="http://www.w3.org/1999/xlink" x="0px" y="0px"
	 viewBox="0 0 1200 600" style="enable-background:new 0 0 1200 600;" xml:space="preserve">
<path d="M661.4,146.4v215H354.3v-215H661.4z M354.3,85c-33.9,0-61.4,27.5-61.4,61.4v215c0,33.9,27.5,61.4,61.4,61.4h112.6
	l-10.3,30.7H385c-17,0-30.7,13.7-30.7,30.7S368,515,385,515h245.7c17,0,30.7-13.7,30.7-30.7s-13.7-30.7-30.7-30.7H559l-10.3-30.7
	h112.7c33.9,0,61.4-27.5,61.4-61.4v-215c0-33.9-27.5-61.4-61.4-61.4H354.3z M799.6,85c-25.4,0-46.1,20.6-46.1,46.1v337.8
	c0,25.4,20.6,46.1,46.1,46.1H861c25.4,0,46.1-20.6,46.1-46.1V131.1c0-25.4-20.6-46.1-46.1-46.1H799.6z M815,146.4h30.7
	c8.4,0,15.4,6.9,15.4,15.4s-6.9,15.4-15.4,15.4H815c-8.4,0-15.4-6.9-15.4-15.4S806.5,146.4,815,146.4z M799.6,223.2
	c0-8.4,6.9-15.4,15.4-15.4h30.7c8.4,0,15.4,6.9,15.4,15.4s-6.9,15.4-15.4,15.4H815C806.5,238.6,799.6,231.7,799.6,223.2z
	 M830.3,376.8c17,0,30.7,13.7,30.7,30.7c0,17-13.7,30.7-30.7,30.7c-17,0-30.7-13.7-30.7-30.7C799.6,390.5,813.4,376.8,830.3,376.8z"
	/>
</svg>
