<?xml version="1.0" encoding="utf-8"?>
<!-- Generator: Adobe Illustrator 24.1.0, SVG Export Plug-In . SVG Version: 6.00 Build 0)  -->
<svg version="1.1" id="Layer_1" xmlns="http://www.w3.org/2000/svg" xmlns:xlink="http://www.w3.org/1999/xlink" x="0px" y="0px"
	 viewBox="0 0 512 437.8" style="enable-background:new 0 0 512 437.8;" xml:space="preserve">
<path d="M228.3,426.9L47.6,258.2c-4.2-3.9-8.2-8.1-11.9-12.4h87c22.6,0,43-13.6,51.7-34.5l10.5-25.2l49.3,109.5
	c3.8,8.5,12.1,14,21.4,14.1c9.3,0.1,17.8-5,22-13.3l42.4-84.9l1.7,3.4c9.5,19,28.9,31,50.1,31h104.5c-3.7,4.3-7.7,8.5-11.9,12.4
	L283.7,426.9c-7.5,7-17.4,10.9-27.7,10.9S235.8,433.9,228.3,426.9z M503.7,197.8h-132c-3,0-5.8-1.7-7.2-4.4l-23.2-46.3
	c-4.1-8.1-12.4-13.3-21.5-13.3s-17.4,5.1-21.5,13.3l-41.4,82.8l-51-113.9c-3.9-8.7-12.7-14.3-22.2-14.1s-18.1,5.9-21.8,14.8
	L130.1,193c-1.2,3-4.2,4.9-7.4,4.9H16c-2.6,0-5,0.4-7.3,1.1C3,183,0,166,0,148.7v-5.8C0,73,50.5,13.4,119.4,1.9
	c45.6-7.6,92,7.3,124.6,39.9l12,12l12-12C300.6,9.2,347-5.7,392.6,1.9C461.5,13.4,512,73,512,142.9v5.8
	C512,165.6,509.2,182.2,503.7,197.8z"/>
</svg>
