<?xml version="1.0" encoding="utf-8"?>
<!-- Generator: Adobe Illustrator 24.1.0, SVG Export Plug-In . SVG Version: 6.00 Build 0)  -->
<svg version="1.1" id="Layer_1" xmlns="http://www.w3.org/2000/svg" xmlns:xlink="http://www.w3.org/1999/xlink" x="0px" y="0px"
	 viewBox="0 0 600 600" style="enable-background:new 0 0 600 600;" xml:space="preserve">
<path d="M76,76c-17.7,0-32,14.3-32,32s14.3,32,32,32h15.3l89.6,128L91.3,396H76c-17.7,0-32,14.3-32,32s14.3,32,32,32h32
	c10.4,0,20.2-5.1,26.2-13.6L220,323.8l85.8,122.6c6,8.6,15.8,13.6,26.2,13.6h32c17.7,0,32-14.3,32-32s-14.3-32-32-32h-15.3
	l-89.6-128l89.6-128H364c17.7,0,32-14.3,32-32s-14.3-32-32-32h-32c-10.4,0-20.2,5.1-26.2,13.6L220,212.2L134.2,89.6
	c-6-8.5-15.8-13.6-26.2-13.6H76z M524,332c0-11.1-5.7-21.4-15.2-27.2s-21.2-6.4-31.1-1.4l-32,16c-15.8,7.9-22.2,27.1-14.3,42.9
	C437,373.5,448.3,380,460,380v80c-17.7,0-32,14.3-32,32s14.3,32,32,32h32h32c17.7,0,32-14.3,32-32s-14.3-32-32-32V332z"/>
</svg>
