<?xml version="1.0" encoding="utf-8"?>
<!-- Generator: Adobe Illustrator 24.1.0, SVG Export Plug-In . SVG Version: 6.00 Build 0)  -->
<svg version="1.1" id="Layer_1" xmlns="http://www.w3.org/2000/svg" xmlns:xlink="http://www.w3.org/1999/xlink" x="0px" y="0px"
	 viewBox="0 0 1500 500" style="enable-background:new 0 0 1500 500;" xml:space="preserve">
<path d="M722.3-671.1L541.6-839.8c-4.2-3.9-8.2-8.1-11.9-12.4h87c22.6,0,43-13.6,51.7-34.5l10.5-25.2l49.3,109.5
	c3.8,8.5,12.1,14,21.4,14.1c9.3,0.1,17.8-5,22-13.3l42.4-84.9l1.7,3.4c9.5,19,28.9,31,50.1,31h104.5c-3.7,4.3-7.7,8.5-11.9,12.4
	L777.7-671.1c-7.5,7-17.4,10.9-27.7,10.9S729.8-664.1,722.3-671.1z M997.7-900.2h-132c-3,0-5.8-1.7-7.2-4.4l-23.2-46.3
	c-4.1-8.1-12.4-13.3-21.5-13.3s-17.4,5.1-21.5,13.3l-41.4,82.8l-51-113.9c-3.9-8.7-12.7-14.3-22.2-14.1c-9.5,0.2-18.1,5.9-21.8,14.8
	L624.1-905c-1.2,3-4.2,4.9-7.4,4.9H510c-2.6,0-5,0.4-7.3,1.1c-5.7-16-8.7-33-8.7-50.3v-5.8c0-69.9,50.5-129.5,119.4-141
	c45.6-7.6,92,7.3,124.6,39.9l12,12l12-12c32.6-32.6,79-47.5,124.6-39.9c68.9,11.5,119.4,71.1,119.4,141v5.8
	C1006-932.4,1003.2-915.8,997.7-900.2z"/>
<path d="M526.8-527.9c-17.7,0-32,14.3-32,32s14.3,32,32,32h15.3l89.6,128l-89.6,128h-15.3c-17.7,0-32,14.3-32,32s14.3,32,32,32h32
	c10.4,0,20.2-5.1,26.2-13.6l85.8-122.6l85.8,122.6c6,8.6,15.8,13.6,26.2,13.6h32c17.7,0,32-14.3,32-32s-14.3-32-32-32h-15.3
	l-89.6-128l89.6-128h15.3c17.7,0,32-14.3,32-32s-14.3-32-32-32h-32c-10.4,0-20.2,5.1-26.2,13.6l-85.8,122.6L585-514.3
	c-6-8.5-15.8-13.6-26.2-13.6H526.8z M974.8-271.9c0-11.1-5.7-21.4-15.2-27.2s-21.2-6.4-31.1-1.4l-32,16
	c-15.8,7.9-22.2,27.1-14.3,42.9c5.6,11.2,16.9,17.7,28.6,17.7v80c-17.7,0-32,14.3-32,32s14.3,32,32,32h32h32c17.7,0,32-14.3,32-32
	s-14.3-32-32-32V-271.9z"/>
<path d="M811.4,96.4v215H504.3v-215H811.4z M504.3,35c-33.9,0-61.4,27.5-61.4,61.4v215c0,33.9,27.5,61.4,61.4,61.4h112.6l-10.3,30.7
	H535c-17,0-30.7,13.7-30.7,30.7S518,465,535,465h245.7c17,0,30.7-13.7,30.7-30.7s-13.7-30.7-30.7-30.7H709l-10.3-30.7h112.7
	c33.9,0,61.4-27.5,61.4-61.4v-215c0-33.9-27.5-61.4-61.4-61.4L504.3,35L504.3,35z M949.6,35c-25.4,0-46.1,20.6-46.1,46.1v337.8
	c0,25.4,20.6,46.1,46.1,46.1h61.4c25.4,0,46.1-20.6,46.1-46.1V81.1c0-25.4-20.6-46.1-46.1-46.1C1011,35,949.6,35,949.6,35z
	 M965,96.4h30.7c8.4,0,15.4,6.9,15.4,15.4s-6.9,15.4-15.4,15.4H965c-8.4,0-15.4-6.9-15.4-15.4S956.5,96.4,965,96.4z M949.6,173.2
	c0-8.4,6.9-15.4,15.4-15.4h30.7c8.4,0,15.4,6.9,15.4,15.4s-6.9,15.4-15.4,15.4H965C956.5,188.6,949.6,181.7,949.6,173.2z
	 M980.3,326.8c17,0,30.7,13.7,30.7,30.7s-13.7,30.7-30.7,30.7s-30.7-13.7-30.7-30.7S963.4,326.8,980.3,326.8z"/>
</svg>
