<svg id="Layer_1" data-name="Layer 1" xmlns="http://www.w3.org/2000/svg" viewBox="0 0 1500 500"><path d="M811.4,96.4v215H504.3V96.4ZM504.3,35a61.41,61.41,0,0,0-61.4,61.4v215a61.41,61.41,0,0,0,61.4,61.4H616.9l-10.3,30.7H535a30.75,30.75,0,0,0,0,61.5H780.7a30.7,30.7,0,0,0,0-61.4H709l-10.3-30.7H811.4a61.41,61.41,0,0,0,61.4-61.4V96.5a61.41,61.41,0,0,0-61.4-61.4H504.3Zm445.3,0a46.11,46.11,0,0,0-46.1,46.1V418.9A46.11,46.11,0,0,0,949.6,465H1011a46.11,46.11,0,0,0,46.1-46.1V81.1A46.11,46.11,0,0,0,1011,35ZM965,96.4h30.7a15.4,15.4,0,0,1,0,30.8H965a15.4,15.4,0,1,1,0-30.8Zm-15.4,76.8A15.47,15.47,0,0,1,965,157.8h30.7a15.4,15.4,0,0,1,0,30.8H965A15.41,15.41,0,0,1,949.6,173.2Zm30.7,153.6a30.7,30.7,0,1,1-30.7,30.7A30.64,30.64,0,0,1,980.3,326.8Z"/></svg>