<svg id="Layer_1" data-name="Layer 1" xmlns="http://www.w3.org/2000/svg" viewBox="0 0 2000 500"><path d="M421.2,93V308H114.1V93ZM114.1,31.55A61.41,61.41,0,0,0,52.7,93V308a61.41,61.41,0,0,0,61.4,61.4H226.7l-10.3,30.7H144.8a30.75,30.75,0,0,0,0,61.5H390.5a30.7,30.7,0,0,0,0-61.4H318.8l-10.3-30.7H421.2a61.41,61.41,0,0,0,61.4-61.4v-215a61.41,61.41,0,0,0-61.4-61.4H114.1Zm445.3,0a46.11,46.11,0,0,0-46.1,46.1v337.8a46.11,46.11,0,0,0,46.1,46.1h61.4a46.11,46.11,0,0,0,46.1-46.1V77.65a46.11,46.11,0,0,0-46.1-46.1ZM574.8,93h30.7a15.4,15.4,0,0,1,0,30.8H574.8a15.4,15.4,0,1,1,0-30.8Zm-15.4,76.8a15.47,15.47,0,0,1,15.4-15.4h30.7a15.4,15.4,0,0,1,0,30.8H574.8A15.41,15.41,0,0,1,559.4,169.75Zm30.7,153.6a30.7,30.7,0,1,1-30.7,30.7A30.64,30.64,0,0,1,590.1,323.35Z"/></svg>