<svg id="Layer_1" data-name="Layer 1" xmlns="http://www.w3.org/2000/svg" viewBox="0 0 600 500"><path d="M212,74a23.94,23.94,0,0,0-24,24V402a70.76,70.76,0,0,1-4.1,24H484a23.94,23.94,0,0,0,24-24V98a23.94,23.94,0,0,0-24-24ZM116,474a72,72,0,0,1-72-72V106a24,24,0,0,1,48,0V402a24,24,0,0,0,48,0V98a72,72,0,0,1,72-72H484a72,72,0,0,1,72,72V402a72,72,0,0,1-72,72ZM220,130a23.94,23.94,0,0,1,24-24h96a23.94,23.94,0,0,1,24,24v80a23.94,23.94,0,0,1-24,24H244a23.94,23.94,0,0,1-24-24Zm200-24h32a24,24,0,0,1,0,48H420a24,24,0,0,1,0-48Zm0,80h32a24,24,0,0,1,0,48H420a24,24,0,0,1,0-48ZM244,266H452a24,24,0,0,1,0,48H244a24,24,0,0,1,0-48Zm0,80H452a24,24,0,0,1,0,48H244a24,24,0,0,1,0-48Z"/></svg>