<svg id="Layer_1" data-name="Layer 1" xmlns="http://www.w3.org/2000/svg" viewBox="0 0 2000 500"><path d="M281,459.65,100.3,291a154.51,154.51,0,0,1-11.9-12.4h87a56,56,0,0,0,51.7-34.5l10.5-25.2,49.3,109.5a23.69,23.69,0,0,0,21.4,14.1,24.26,24.26,0,0,0,22-13.3l42.4-84.9,1.7,3.4a56,56,0,0,0,50.1,31H529a154.51,154.51,0,0,1-11.9,12.4L336.4,459.65a40.65,40.65,0,0,1-55.4,0Zm275.4-229.1h-132a8.15,8.15,0,0,1-7.2-4.4L394,179.85a24,24,0,0,0-43,0l-41.4,82.8-51-113.9a24,24,0,0,0-44,.7l-31.8,76.3a8,8,0,0,1-7.4,4.9H68.7a24.78,24.78,0,0,0-7.3,1.1,149.87,149.87,0,0,1-8.7-50.3v-5.8a142.94,142.94,0,0,1,244-101.1l12,12,12-12a142.94,142.94,0,0,1,244,101.1v5.8A147.61,147.61,0,0,1,556.4,230.55Z"/></svg>