<svg id="Layer_1" data-name="Layer 1" xmlns="http://www.w3.org/2000/svg" viewBox="0 0 1500 500"><path d="M433.28,93V308H126.18V93Zm-307.1-61.4A61.41,61.41,0,0,0,64.78,93V308a61.41,61.41,0,0,0,61.4,61.4h112.6l-10.3,30.7h-71.6a30.75,30.75,0,0,0,0,61.5h245.7a30.7,30.7,0,0,0,0-61.4h-71.7l-10.3-30.7h112.7a61.41,61.41,0,0,0,61.4-61.4v-215a61.41,61.41,0,0,0-61.4-61.4H126.18Zm445.3,0a46.11,46.11,0,0,0-46.1,46.1v337.8a46.11,46.11,0,0,0,46.1,46.1h61.4a46.11,46.11,0,0,0,46.1-46.1V77.65a46.11,46.11,0,0,0-46.1-46.1ZM586.88,93h30.7a15.4,15.4,0,0,1,0,30.8h-30.7a15.4,15.4,0,1,1,0-30.8Zm-15.4,76.8a15.47,15.47,0,0,1,15.4-15.4h30.7a15.4,15.4,0,0,1,0,30.8h-30.7A15.41,15.41,0,0,1,571.48,169.75Zm30.7,153.6a30.7,30.7,0,1,1-30.7,30.7A30.64,30.64,0,0,1,602.18,323.35Z"/></svg>