<svg id="Layer_1" data-name="Layer 1" xmlns="http://www.w3.org/2000/svg" viewBox="0 0 1500 500"><path d="M526.82,42.1a32,32,0,0,0,0,64h15.3l89.6,128-89.6,128h-15.3a32,32,0,0,0,0,64h32A32.14,32.14,0,0,0,585,412.5l85.8-122.6,85.8,122.6a31.88,31.88,0,0,0,26.2,13.6h32a32,32,0,0,0,0-64h-15.3l-89.6-128,89.6-128h15.3a32,32,0,1,0,0-64h-32a32.14,32.14,0,0,0-26.2,13.6l-85.8,122.6L585,55.7a32.14,32.14,0,0,0-26.2-13.6Zm448,256a32,32,0,0,0-46.3-28.6l-32,16a32,32,0,0,0,14.3,60.6v80a32,32,0,0,0,0,64h64a32,32,0,0,0,0-64Z"/></svg>